<?xml version="1.0" encoding="utf-8"?>
<!-- Generator: Adobe Illustrator 21.0.0, SVG Export Plug-In . SVG Version: 6.00 Build 0)  -->
<svg version="1.1" id="Layer_1" xmlns="http://www.w3.org/2000/svg" xmlns:xlink="http://www.w3.org/1999/xlink" x="0px" y="0px"
	 viewBox="0 0 437.1 152.5" style="enable-background:new 0 0 437.1 152.5;" xml:space="preserve">
<style type="text/css">
	.st0{fill:#1E1E1E;}
	.st1{fill:#007D6C;}
	.st2{fill:#22418C;}
	.st3{clip-path:url(#SVGID_2_);}
	.st4{clip-path:url(#SVGID_4_);fill:#22418C;}
	.st5{clip-path:url(#SVGID_4_);fill:#007C6C;}
</style>
<path class="st0" d="M178.7,50.1c8.6,0,11.6-3.9,11.6-12V19.4h-7v18.2c0,4.8-1.2,6.5-4.6,6.5c-3.3,0-4.5-1.8-4.5-6.5V19.4h-7v18.7
	C167.2,46.1,170.2,50.1,178.7,50.1z"/>
<path class="st0" d="M194.6,49.7h7V19.4h-7V49.7z"/>
<path class="st0" d="M217.5,50c2.3,0,4.8-0.4,5.9-0.9v-5.4c-1.6,0.4-3.2,0.5-5,0.5c-4.5,0-6.2-1.8-6.2-9.7c0-7.9,1.6-9.8,6.2-9.8
	c1.4,0,3.2,0.2,4.9,0.5v-5.5c-2.1-0.5-4.1-0.7-6-0.7c-8.1,0-12.4,4.9-12.4,15.5C205,45.2,209.2,50,217.5,50z"/>
<path class="st0" d="M236.4,50c1.5,0,3.1-0.2,4.2-0.7v-5.3c-1.2,0.3-2.3,0.5-3.5,0.5c-3.3,0-4.6-1.8-4.6-6c0-4.2,1.3-5.8,4.7-5.8
	c1,0,2.2,0.2,3.5,0.5v-5.3c-1.2-0.4-2.7-0.7-4.2-0.7c-7.3,0-10.9,3.6-10.9,11.4C225.5,46.5,229.1,50,236.4,50z"/>
<path class="st0" d="M250,50c2.2,0,4.1-0.9,5.4-2.6h0.2l0.4,2.2h6.3V16.6h-6.8v10.8c-0.9-0.1-1.4-0.2-1.9-0.2
	c-7.1,0-10.5,4-10.5,12.1C242.9,46.5,245.2,50,250,50z M252.5,45.2c-2,0-2.6-1.4-2.6-6.7c0-5.4,0.8-6.8,3.4-6.8
	c0.9,0,1.6,0.2,2.1,0.5v5.6C255.4,43.6,254.5,45.2,252.5,45.2z"/>
<path class="st0" d="M272,50.1c5.7,0,8.9-2.6,8.9-7.2c0-5.8-4.2-6.4-7-6.8c-1.3-0.2-2.1-0.7-2.1-1.9c0-1.2,1-1.9,2.8-1.9
	c1.3,0,2.5,0.2,5.2,0.8v-5c-2.2-0.5-4.7-0.9-6.6-0.9c-4.9,0-7.7,2.7-7.7,7.3c0,6.3,4,6.7,6.6,7c1.6,0.3,2.4,0.9,2.4,1.9
	c0,1.1-0.9,1.7-2.5,1.7c-2.1,0-4.8-0.5-6.5-1.2v5C267.5,49.7,269.8,50.1,272,50.1z"/>
<path class="st1" d="M303.9,136.7h58.7V65.6h-58.7V136.7z M324.6,114.3h19.3v-6.7l3.5,1.6l2.3-3.3V125H317v-19.8l2.4,4.8
	c1.3-0.3,3.1-0.9,5.2-1.6V114.3z M321.4,124.3l25.8-1.1l-0.6-8.1l-25.5,1.5L321.4,124.3z M349.7,77v23.3c-2.6-1.1-5-2.2-7.1-3.3
	c3.5-4,6.1-9.2,7-15.8h-15.9l1.3-1.6l-4.3-2.6H349.7z M326.8,77L317,89.5V77H326.8z M320.9,98l2.8-3.6c0.9,1,2,2,2.9,2.9
	c-3.2,1.6-6.5,2.9-9.6,3.7v-6.5L320.9,98z M335.3,103.3c2.1,1.2,4.6,2.5,7.6,3.8H328C330.3,106.1,332.8,104.9,335.3,103.3z
	 M337.1,88c-0.7,1.5-1.6,2.9-2.9,4.1c-1.8-1.3-3.4-2.6-4.8-4.1H337.1z"/>
<path class="st1" d="M386.6,92.3h5.6l-22,7.8l5.4,9l12.2-4.7v4.4h8.9v3.4h-19.4v7.5h3.5l1.6,7.9h-8v8.9H433v-8.9h-8.4l1.6-7.9h3.8
	v-7.5h-19.4v-3.4h8.9v-4.5l12.8,4.7l4.6-9l-26.4-9.4h20.6V81h-20.8l1.4-4.4h22.8V67h-19.8l1-3.1h-11.5L398.8,82V63.8h-12.2V92.3z
	 M372.5,90.6h12.2v-25h-12.2V90.6z M398.8,90v-7.2h10.5v7.4l-5.5-2L398.8,90z M391.6,119.7h5v7.9h-3.5L391.6,119.7z M410.7,119.7
	h4.3l-1.3,7.9h-3V119.7z M403.6,98.3l8.3,3.1h-16.4L403.6,98.3z"/>
<path class="st2" d="M166.9,131.5h14.1v-18.3h2.5c18.4,0,26.2-6.4,26.2-21.4c0-15.3-8-21.7-27.1-21.7c-5.2,0-10.5,0.4-15.6,1.2
	V131.5z M185,101.9c-1.2,0-3-0.1-4.1-0.2V81.9c0.7-0.2,2.5-0.3,3.8-0.3c8.1,0,10.5,2.6,10.5,10.2C195.2,99.5,192.7,101.9,185,101.9z
	"/>
<path class="st2" d="M215.4,131.5h12.8V88h0.5l2.8,10.4l9.4,29.9h11.8l9.5-29.9l2.7-10.4h0.5v43.4h13.1V70.9h-20l-9.3,29.4
	l-1.9,10.1h-0.6l-1.9-10.1l-9.2-29.4h-20.2V131.5z"/>
<g>
	<g>
		<defs>
			<rect id="SVGID_1_" y="0" width="152.5" height="152.5"/>
		</defs>
		<clipPath id="SVGID_2_">
			<use xlink:href="#SVGID_1_"  style="overflow:visible;"/>
		</clipPath>
		<g class="st3">
			<defs>
				<rect id="SVGID_3_" y="0" width="152.5" height="152.5"/>
			</defs>
			<clipPath id="SVGID_4_">
				<use xlink:href="#SVGID_3_"  style="overflow:visible;"/>
			</clipPath>
			<path class="st4" d="M101.4,126.8c-4.6-5.1-9.9-9.3-14-14.6c-4.7-6-4.5-15.2,0.1-21.4c3.3-4.5,8-6.7,13.3-7
				c4.7-0.2,9.2,1.1,12.6,4.6c3.8,3.8,7.6,7.7,11.5,11.5c1.5,1.4,1.3,2.2-0.1,3.4c-1.8,1.6-3.4,3.2-5,5c-1.1,1.2-1.7,1.2-2.9,0
				c-3.5-3.7-7.1-7.2-10.7-10.8c-2.8-2.9-6.6-3.2-9.1-0.5c-2.8,3-2.7,6.5,0.2,9.5c3.6,3.7,7.2,7.4,10.9,10.9c1.1,1.1,1,1.6,0,2.6
				C106,122,103.8,124.4,101.4,126.8"/>
			<path class="st4" d="M34.3,43.1c4.1,4.2,8.2,8.3,12.3,12.3c2.1,2.1,5.1,2.5,7.6,1.3c2.6-1.3,3.7-3.4,3.5-6.5
				c-0.1-1.4-0.9-2.4-1.8-3.3c-3.7-3.7-7.4-7.5-11.2-11.1c-1.4-1.3-1.3-2,0.1-3.2c1.9-1.7,3.8-3.7,5.4-5.6c0.6-0.8,1.2-0.8,1.6-0.2
				c5.1,5.8,12,10,15.5,17.1c5.1,10.2-1.7,22.7-12.6,24.7C48,69.8,42.7,67.6,38,63.2c-3.7-3.5-7.3-7.3-10.9-10.9
				c-0.8-0.8-1.2-1,0.1-2C29.7,48.1,31.8,45.6,34.3,43.1"/>
			<path class="st4" d="M118.9,43.1c2.3,2.3,4.5,4.7,6.8,7c0.5,0.5,1.2,0.9,0.3,1.7c-5,4.7-9.3,10.2-14.9,14.3
				c-9.8,7-25.2,0.6-26.8-11.9c-0.9-6.6,1.2-11.7,5.4-16.3c3.3-3.6,6.9-6.9,10.3-10.4c1.1-1.2,1.9-1.2,3,0c1.8,2,3.8,3.9,5.8,5.7
				c1.1,1,0.9,1.6-0.1,2.5c-3.5,3.4-7,6.8-10.6,10.1c-2.9,2.7-3.4,5.6-2,8.3c2,4,7.2,4.7,10.6,1.3C110.7,51.3,114.7,47.3,118.9,43.1
				"/>
			<path class="st4" d="M51,126.7c-2-2-4-4-5.9-6c-2.1-2.1-2.1-2.9,0.3-4.6c4-2.9,7.1-6.7,10.5-10.1c1.8-1.9,2.4-4.4,1.2-6.9
				c-1.2-2.6-4-4.1-6.7-3.8c-2,0.2-3.4,1.5-4.8,2.8c-3.4,3.3-6.8,6.6-10,10c-1.3,1.4-2.2,1.2-3.3,0c-2-2.3-4.5-4.1-6.2-6.6
				c2-2.1,4-4.1,6-6.2c3.2-3.2,6.2-6.6,10.1-9c10.6-6.3,24.7,0.1,26.5,12.5c0.9,6.5-1,11.7-5.7,16.1C58.9,118.6,55.1,122.7,51,126.7
				"/>
			<path class="st5" d="M114.5,82h-14.2c-4.2,0-6.2-1.7-6.5-5c-0.4-4.9,2.5-6.4,6.2-6.5c10.1-0.2,20.1-0.1,30.2-0.1
				c1.3,0,1.7,0.3,1.2,1.7c-1.2,2.7-1.3,5.5,0,8.2c0.8,1.7-0.3,1.7-1.4,1.6C124.8,82,119.6,82,114.5,82"/>
			<path class="st5" d="M70.8,21c3.7,1.4,6.8,2,10.2,0.3c1.9-0.9,1.3,1,1.3,1.8c0,8.8,0.1,17.5,0,26.2c0,2,0.3,4.1-0.5,6.2
				c-1.1,2.7-3.3,3.8-6.9,3.4c-2.2-0.2-4.1-2.4-4.1-4.9C70.7,43.2,70.8,32.2,70.8,21"/>
			<path class="st5" d="M82.3,114.4c0,5.1,0,10.1,0,15.2c0,1.4-0.1,2-1.9,1.4c-2.7-1-5.5-1.3-8.2,0.1c-1.6,0.8-1.4-0.5-1.4-1.5
				v-18.9V99.5c0-3.6,2.2-5.9,5.5-6c3.5-0.1,6,2.3,6,5.9C82.3,104.5,82.3,109.5,82.3,114.4"/>
			<path class="st5" d="M38.2,82c-5,0-10,0-14.9,0c-1.6,0-2.2-0.2-1.4-2c1.1-2.5,1-5.2-0.1-7.8c-0.7-1.6-0.1-1.8,1.3-1.8
				c10,0,19.9,0,29.9,0c4,0,6.3,2.4,6.3,5.9c0,3.4-2.5,5.6-6.6,5.6H38.2z"/>
			<path class="st5" d="M76.6,4.4c4.5,0,7.9,3.3,7.7,7.8c-0.1,4.5-3.8,7.8-7.6,7.9c-4.7,0.2-8.1-3.4-8.1-8.2
				C68.7,7.5,72,4.4,76.6,4.4"/>
			<path class="st5" d="M19.8,76.6c0,4.3-3.3,7.5-7.7,7.5c-4.4,0-8.1-3.5-8-7.8c0.1-4.8,4.7-8.1,7.9-8
				C16.7,68.4,20.6,72.6,19.8,76.6"/>
			<path class="st5" d="M76.6,132.9c4.5,0,7.9,3.2,7.8,7.7c-0.1,4.3-3.1,7.6-7.5,8c-4.5,0.4-8.2-3.5-8.2-8.1
				C68.7,136.1,72,133,76.6,132.9"/>
			<path class="st5" d="M133.2,76.3c0-4.5,3.2-7.8,7.4-7.8c4.7,0,7.9,3.2,7.9,7.9c0,4.6-3.2,7.8-7.7,7.8
				C135.9,84.1,133.2,81.3,133.2,76.3"/>
		</g>
	</g>
</g>
</svg>
